PathFileType	4	(X/Y/Z)	C:\Users\Biomechanik\SynologyDrive\AlexP\Athlete_03\Athlete_3_25_03_31\Deadlift_bw_02\marker_experimental.trc
DataRate	CameraRate	NumFrames	NumMarkers	Units	OrigDataRate	OrigDataStartFrame	OrigNumFrames
200.000000	200.000000	4	55	mm	200.000000	1578	1804
Frame#	Time	BL			BR			GLAB			RFHD			LFHD			C7			T6			SPINMOL			SPINM2			SPINM3			T12			BELTOL			BELT2			BELT3			SACROL			SACR2			SACR3			LTHOL			LTH2			LTH3			LSHAOL			LSHA2			LSHA3			LHEE			LTOE			LM5			RTHOL			RTH2			RTH3			RSHAOL			RSHA2			RSHA3			RHEE			RTOE			RM5			STRN			XIPH			LACR			LUAOL			LUA2			LUA3			LLAOL			LLA2			LLA3			LWRR			LWRU			RACR			RUAOL			RUA2			RUA3			RLAOL			RLA2			RLA3			RWRR			RWRU			
		X1	Y1	Z1	X2	Y2	Z2	X3	Y3	Z3	X4	Y4	Z4	X5	Y5	Z5	X6	Y6	Z6	X7	Y7	Z7	X8	Y8	Z8	X9	Y9	Z9	X10	Y10	Z10	X11	Y11	Z11	X12	Y12	Z12	X13	Y13	Z13	X14	Y14	Z14	X15	Y15	Z15	X16	Y16	Z16	X17	Y17	Z17	X18	Y18	Z18	X19	Y19	Z19	X20	Y20	Z20	X21	Y21	Z21	X22	Y22	Z22	X23	Y23	Z23	X24	Y24	Z24	X25	Y25	Z25	X26	Y26	Z26	X27	Y27	Z27	X28	Y28	Z28	X29	Y29	Z29	X30	Y30	Z30	X31	Y31	Z31	X32	Y32	Z32	X33	Y33	Z33	X34	Y34	Z34	X35	Y35	Z35	X36	Y36	Z36	X37	Y37	Z37	X38	Y38	Z38	X39	Y39	Z39	X40	Y40	Z40	X41	Y41	Z41	X42	Y42	Z42	X43	Y43	Z43	X44	Y44	Z44	X45	Y45	Z45	X46	Y46	Z46	X47	Y47	Z47	X48	Y48	Z48	X49	Y49	Z49	X50	Y50	Z50	X51	Y51	Z51	X52	Y52	Z52	X53	Y53	Z53	X54	Y54	Z54	X55	Y55	Z55	

1579	7.890000000000001	1214.2421875	39.24914932250991	-2269.23095703125	1226.855712890625	29.81690216064455	-248.8507843017578	471.6033630371094	1446.567138671875	-1189.501708984375	422.7831115722656	1477.04150390625	-1127.930541992188	433.3048095703125	1474.46142578125	-1263.238159179688	219.07373046875	1335.534423828125	-1203.469848632812	108.4842910766602	1206.790405273438	-1210.22119140625	89.27462768554688	1179.271240234375	-1232.388305664062	81.27244567871094	1171.74072265625	-1183.540649414062	60.0746955871582	1121.12548828125	-1219.856811523438	40.76010894775391	1064.548950195312	-1217.257568359375	7.250767230987549	1048.827270507812	-1233.3076171875	8.1297607421875	1045.452270507812	-1182.765625	-25.26840972900391	995.2167358398439	-1211.802978515625	-62.50065612792969	901.3565063476564	-1236.1982421875	-59.4778938293457	898.5411376953126	-1184.725219726562	-78.37589263916016	841.3463745117189	-1212.353149414062	124.292350769043	605.3217773437501	-1412.174194335938	114.7498474121094	531.6550903320314	-1386.43994140625	156.1557769775391	553.7260131835939	-1401.419189453125	201.0002899169922	309.1067810058595	-1426.752563476562	141.5887145996094	257.132537841797	-1414.74072265625	190.6057891845703	248.6679840087891	-1418.650024414062	76.63702392578125	68.59489440917977	-1320.041015625	293.84765625	48.30039596557625	-1331.287475585938	242.4776916503906	30.00567054748544	-1431.257446289062	114.9303588867188	608.3057861328126	-1017.499389648438	191.2050018310547	593.4213256835939	-998.3107299804688	158.0498657226562	563.5250244140626	-1020.346984863281	195.6760864257812	326.8056640625001	-1000.729919433594	214.1378021240234	250.3911895751954	-1005.150695800781	169.8201293945312	270.9321899414063	-1013.530822753906	76.83708953857422	62.66380691528327	-1115.174560546875	289.6882019042969	47.34046554565437	-1103.960815429688	236.9408721923828	39.91762924194342	-1003.921936035156	348.1183776855469	1188.392211914062	-1206.801025390625	312.880615234375	1044.100463867188	-1212.458984375	306.0239868164062	1258.143310546875	-1376.224243164062	315.5645446777344	1103.2509765625	-1476.22509765625	307.8158874511719	1042.553833007812	-1499.68017578125	344.2472839355469	1046.055053710938	-1462.800537109375	360.8191528320312	840.2166137695314	-1508.41845703125	329.0828247070312	768.2498779296876	-1501.243774414062	377.6967163085938	781.1962890625001	-1499.624145507812	413.5941467285156	683.8010864257814	-1483.38134765625	432.9024963378906	701.7922973632814	-1407.91357421875	308.3242492675781	1246.654907226562	-1043.933349609375	310.2403869628906	1097.667724609375	-949.9910278320311	334.0180969238281	1035.803588867188	-959.2083740234374	297.588623046875	1038.412109375	-922.8571166992186	329.446044921875	814.5075073242188	-925.70703125	388.7163391113281	761.8591308593751	-934.1444091796875	339.5547180175781	752.9413452148439	-932.5244750976562	376.0993347167969	669.4004516601564	-946.4104614257812	383.8745422363281	664.5574951171876	-1025.77490234375	
1580	7.895	1214.242065429688	39.24951171875014	-2269.230224609375	1226.856079101562	29.81727218627931	-248.8504791259766	469.4669799804688	1451.293701171875	-1189.48828125	420.5066223144531	1481.537109375	-1127.902709960938	431.0157775878906	1479	-1263.218872070312	217.5186309814453	1338.835205078125	-1203.43603515625	107.7988586425781	1209.340942382812	-1210.150024414062	88.76264953613281	1181.69580078125	-1232.301513671875	80.82591247558594	1174.150512695312	-1183.450073242188	59.96919250488281	1123.361938476562	-1219.737182617188	41.01736450195312	1066.698974609375	-1217.1337890625	7.625442981719971	1050.83984375	-1233.17626953125	8.531588554382324	1047.466430664062	-1182.6328125	-24.61859893798828	997.0563964843751	-1211.662841796875	-61.28535842895508	903.3680419921876	-1236.049682617188	-58.26225280761719	900.5640258789064	-1184.578491210938	-77.08503723144531	843.3342285156251	-1212.192993164062	124.3764266967773	607.0050659179689	-1411.90283203125	114.2837295532227	533.3848876953126	-1386.155883789062	155.8723907470703	555.1316528320314	-1401.22314453125	200.1196136474609	309.4753723144532	-1426.4912109375	140.8688049316406	257.3171691894532	-1414.496948242188	189.9070587158203	249.0046539306641	-1418.45751953125	76.61045837402344	68.59723663330087	-1320.043334960938	293.8378601074219	48.3160705566407	-1331.299560546875	242.476806640625	30.00597000122079	-1431.259643554688	115.0210266113281	610.0930786132814	-1017.529724121094	191.1991271972656	594.6000976562501	-998.4507446289062	157.7875061035156	564.9959716796876	-1020.413208007812	194.7002716064453	327.1433105468751	-1000.819702148438	213.3819732666016	250.7807922363282	-1005.149780273438	169.0192718505859	271.1949157714844	-1013.608276367188	76.81003570556641	62.64996337890632	-1115.13427734375	289.6791687011719	47.36030578613288	-1103.93408203125	236.9317169189453	39.90964889526374	-1003.902282714844	347.4228515625	1192.486206054688	-1206.729736328125	313.1724853515625	1047.968505859375	-1212.32861328125	304.825439453125	1262.042846679688	-1376.318359375	314.7334899902344	1107.016235351562	-1476.266235351562	307.0943908691406	1046.282470703125	-1499.66259765625	343.5722961425781	1049.902587890625	-1462.839233398438	360.4838562011719	844.0675048828126	-1508.381469726562	328.9141845703125	772.0357666015626	-1501.149291992188	377.5021667480469	785.0810546875001	-1499.578002929688	413.6232299804688	687.7764282226564	-1483.3349609375	432.9849853515625	705.8472900390626	-1407.89404296875	307.2024536132812	1250.618530273438	-1043.692016601562	309.3861389160156	1101.518310546875	-949.7000732421874	333.2725524902344	1039.676635742188	-958.9172363281249	296.7342224121094	1042.195922851562	-922.6914672851561	329.012939453125	818.3193359375	-925.6129760742188	388.4003601074219	765.8078002929689	-934.0757446289062	339.2496948242188	756.7899780273439	-932.5187377929688	375.9742431640625	673.3399047851564	-946.5247192382812	383.823486328125	668.6527099609376	-1025.88818359375	
1581	7.9	1214.24169921875	39.24967575073256	-2269.2294921875	1226.8564453125	29.81763648986818	-248.8503570556641	467.3271179199219	1455.968872070312	-1189.474487304688	418.229736328125	1485.983032226562	-1127.874755859375	428.7254638671875	1483.490600585938	-1263.19873046875	215.9635925292969	1342.096801757812	-1203.404174804688	107.1179504394531	1211.858154296875	-1210.07958984375	88.25487518310547	1184.088745117188	-1232.216064453125	80.38388061523438	1176.527221679688	-1183.362426757812	59.87065124511719	1125.568969726562	-1219.619384765625	41.28500747680664	1068.819702148438	-1217.014770507812	8.010409355163574	1052.827270507812	-1233.050415039062	8.942728996276855	1049.455688476562	-1182.505493164062	-23.95587539672852	998.8718261718751	-1211.52783203125	-60.0608024597168	905.3610229492189	-1235.906127929688	-57.03761291503906	902.5689086914064	-1184.437744140625	-75.78800964355469	845.3036499023439	-1212.038452148438	124.465217590332	608.6788940429689	-1411.629272460938	113.8163757324219	535.1102294921876	-1385.87060546875	155.5997772216797	556.5336914062501	-1401.0625	199.2288055419922	309.8460388183595	-1426.221435546875	140.1410675048828	257.5022277832032	-1414.245849609375	189.2000732421875	249.3430938720704	-1418.258666992188	76.58457946777344	68.59871673583993	-1320.045532226562	293.8284606933594	48.33102798461922	-1331.310913085938	242.4762420654297	30.00654983520517	-1431.260986328125	115.1141052246094	611.8786621093751	-1017.557189941406	191.19287109375	595.7757568359376	-998.5972900390625	157.5252685546875	566.4666137695314	-1020.483947753906	193.7111511230469	327.4819030761719	-1000.916381835938	212.6161651611328	251.1731872558594	-1005.153381347656	168.2083587646484	271.4588928222657	-1013.690246582031	76.78227996826172	62.63598632812507	-1115.09375	289.669921875	47.37933731079109	-1103.907836914062	236.9219207763672	39.90195846557624	-1003.882873535156	346.7239379882812	1196.546752929688	-1206.658935546875	313.4610900878906	1051.809814453125	-1212.2021484375	303.6228332519531	1265.906494140625	-1376.417846679688	313.8958435058594	1110.748413085938	-1476.311157226562	306.3680419921875	1049.97900390625	-1499.651245117188	342.8917236328125	1053.717895507812	-1462.884643554688	360.1453247070312	847.8847045898439	-1508.35400390625	328.7396240234375	775.7894287109376	-1501.065307617188	377.3017883300781	788.9326171875001	-1499.539794921875	413.645263671875	691.7183227539064	-1483.296875	433.0539245605469	709.8668212890626	-1407.880981445312	306.0743713378906	1254.546997070312	-1043.451293945312	308.5248107910156	1105.3349609375	-949.4135131835936	332.520751953125	1043.517333984375	-958.6229858398436	295.8778991699219	1045.952270507812	-922.5167846679686	328.5771179199219	822.1013793945312	-925.5120239257812	388.0808410644531	769.7268066406251	-934.0013427734375	338.9425354003906	760.6092529296876	-932.5054931640625	375.8492126464844	677.2506713867189	-946.6336669921875	383.7715759277344	672.7196655273439	-1025.996459960938	
1582	7.905	1214.241455078125	39.24959182739272	-2269.228515625	1226.856811523438	29.81799697875978	-248.8504028320312	465.1851196289062	1460.590576171875	-1189.460327148438	415.9537658691406	1490.377563476562	-1127.846435546875	426.4353942871094	1487.931396484375	-1263.177490234375	214.4088134765625	1345.318359375	-1203.37451171875	106.4414291381836	1214.341552734375	-1210.010009765625	87.7509765625	1186.449462890625	-1232.132080078125	79.94590759277344	1178.8701171875	-1183.276733398438	59.7787971496582	1127.746337890625	-1219.503173828125	41.56251525878906	1070.910766601562	-1216.900390625	8.405149459838867	1054.78857421875	-1232.930297851562	9.362622261047363	1051.419189453125	-1182.38427734375	-23.28097152709961	1000.662414550781	-1211.3984375	-58.82704925537109	907.3350219726564	-1235.767578125	-55.80358505249023	904.5550537109376	-1184.302490234375	-74.48544311523438	847.2546386718751	-1211.8896484375	124.5579528808594	610.3426513671876	-1411.352783203125	113.3457107543945	536.8316040039064	-1385.58544921875	155.3342132568359	557.9324951171876	-1400.928466796875	198.3269958496094	310.2187500000001	-1425.943359375	139.4045867919922	257.6877746582032	-1413.986572265625	188.4840545654297	249.6832122802735	-1418.053466796875	76.55947875976562	68.59918975830087	-1320.047729492188	293.8194274902344	48.34535217285164	-1331.321655273438	242.4759368896484	30.00734138488778	-1431.261474609375	115.2087097167969	613.6619262695314	-1017.582885742188	191.1849060058594	596.9476318359376	-998.74951171875	157.2619934082031	567.9360961914064	-1020.558715820312	192.7090606689453	327.8211669921876	-1001.01953125	211.8405456542969	251.5680084228516	-1005.161804199219	167.3874816894531	271.7238769531251	-1013.776184082031	76.75381469726562	62.62176513671882	-1115.052856445312	289.660400390625	47.39769744873054	-1103.882080078125	236.911376953125	39.89453125000006	-1003.863647460938	346.0216369628906	1200.572509765625	-1206.5888671875	313.7457885742188	1055.623046875	-1212.07958984375	302.4164733886719	1269.732055664062	-1376.521484375	313.0515441894531	1114.445556640625	-1476.359619140625	305.6362915039062	1053.64208984375	-1499.64599609375	342.2054748535156	1057.498779296875	-1462.93701171875	359.8027648925781	851.6666259765626	-1508.336791992188	328.5588684082031	779.5090942382814	-1500.991333007812	377.0949401855469	792.7497558593751	-1499.510620117188	413.6600341796875	695.6250610351564	-1483.267211914062	433.1098022460938	713.8496704101564	-1407.874389648438	304.9403991699219	1258.439086914062	-1043.212768554688	307.6559753417969	1109.115600585938	-949.1309814453124	331.7623901367188	1047.324462890625	-958.3258666992186	295.0180969238281	1049.678833007812	-922.3335571289061	328.1391906738281	825.852294921875	-925.4037475585938	387.7584228515625	773.6148681640626	-933.9212646484375	338.6337585449219	764.3978881835939	-932.484619140625	375.7247314453125	681.1315917968751	-946.7369384765625	383.7195739746094	676.7567138671876	-1026.099609375	
